<svg style="position: absolute; width: 0; height: 0; overflow: hidden;" version="1.1" xmlns="http://www.w3.org/2000/svg" xmlns:xlink="http://www.w3.org/1999/xlink">
<defs>
<symbol id="arrow-icon" viewBox="0 0 578 1024">
<path d="M578.15 510.635c0.002-0.22 0.004-0.48 0.004-0.74 0-19.415-7.823-37.003-20.489-49.783l0.005 0.005-437.658-440.32c-12.876-12.958-30.709-20.979-50.415-20.979s-37.538 8.021-50.411 20.975l-0.004 0.004c-12.879 13.078-20.832 31.040-20.832 50.859s7.953 37.781 20.841 50.868l-0.009-0.009 387.277 389.12-387.277 389.803c-12.946 12.921-20.955 30.784-20.955 50.517 0 39.417 31.953 71.37 71.37 71.37 19.683 0 37.505-7.968 50.416-20.854l-0.001 0.001 437.658-440.32c12.661-12.775 20.484-30.363 20.484-49.778 0-0.26-0.001-0.52-0.004-0.779v0.039z"></path>
</symbol>
<symbol id="bag-icon" viewBox="0 0 37 32">
<path d="M14.523 0c-0.007-0-0.015-0-0.023-0-2.128 0-3.855 1.716-3.875 3.839v0.002c0 0.761 0.617 1.378 1.378 1.378s1.378-0.617 1.378-1.378v0c0.005-0.621 0.51-1.123 1.132-1.123 0.003 0 0.007 0 0.010 0h7.832c0 0 0 0 0 0 0.622 0 1.127 0.502 1.132 1.122v0.001c0 0.761 0.617 1.378 1.378 1.378s1.378-0.617 1.378-1.378v0c-0.016-2.125-1.742-3.841-3.869-3.841-0.007 0-0.013 0-0.020 0h-7.831zM3.746 32.009h29.377c0.010 0 0.021 0 0.033 0 2.037 0 3.691-1.645 3.704-3.679v-18.092c-0.017-2.036-1.671-3.68-3.709-3.68-0.010 0-0.019 0-0.029 0h-29.375c-0.008-0-0.018-0-0.027-0-2.038 0-3.693 1.644-3.709 3.679v18.092c0.013 2.035 1.666 3.68 3.704 3.68 0.012 0 0.023-0 0.035-0h-0.002zM31.066 25.951h-25.158c-0.495 0-0.896-0.401-0.896-0.896s0.401-0.896 0.896-0.896c0 0 0 0 0 0h25.158c0.495 0 0.896 0.401 0.896 0.896s-0.401 0.896-0.896 0.896c0 0 0 0 0 0v0zM31.037 20.185h-25.149c-0.495 0-0.896-0.401-0.896-0.896s0.401-0.896 0.896-0.896c0 0 0 0 0 0h25.149c0 0 0 0 0 0 0.495 0 0.896 0.401 0.896 0.896s-0.401 0.896-0.896 0.896v0zM5.86 12.626h25.158c0.495 0 0.896 0.401 0.896 0.896s-0.401 0.896-0.896 0.896c0 0 0 0 0 0h-25.158c-0.495 0-0.896-0.401-0.896-0.896s0.401-0.896 0.896-0.896v0z"></path>
</symbol>
<symbol id="blogger-icon" viewBox="0 0 32 32">
<path d="M26 0h-20c-3.314 0-6 2.686-6 6v0 20c0 3.314 2.686 6 6 6v0h20c3.314 0 6-2.686 6-6v0-20c0-3.314-2.686-6-6-6v0zM25.98 19.54c-0.010 3.559-2.898 6.44-6.458 6.44-0.008 0-0.015 0-0.023-0h-6.979c-0.008 0-0.017 0-0.026 0-3.564 0-6.455-2.879-6.474-6.438v-7.082c0.012-3.559 2.901-6.44 6.462-6.44 0.013 0 0.027 0 0.040 0h3.258c0.055-0.002 0.121-0.003 0.186-0.003 3.454 0 6.256 2.791 6.274 6.241v0.002c0.063 0.686 0.626 1.221 1.318 1.24l0.002 0h1.12c0.734 0.082 1.3 0.7 1.3 1.449 0 0.004 0 0.007-0 0.011v-0.001 4.58zM19.74 18.5h-7.48c-0.685 0-1.24 0.555-1.24 1.24s0.555 1.24 1.24 1.24h7.48c0.685 0 1.24-0.555 1.24-1.24s-0.555-1.24-1.24-1.24c0 0 0 0 0 0v0zM12.26 13.5h3.74c0.685 0 1.24-0.555 1.24-1.24s-0.555-1.24-1.24-1.24h-3.74c-0.685 0-1.24 0.555-1.24 1.24s0.555 1.24 1.24 1.24v0z"></path>
</symbol>
<symbol id="cart-icon" viewBox="0 0 38 32">
<path d="M29.099 29.105c0 0.001 0 0.002 0 0.002 0 1.609 1.305 2.914 2.914 2.914s2.914-1.305 2.914-2.914c0-1.609-1.304-2.914-2.914-2.914-0.803 0-1.53 0.325-2.057 0.85l0-0c-0.529 0.518-0.857 1.239-0.857 2.037 0 0.008 0 0.017 0 0.025v-0.001zM37.421 3.325c-0.259-0.268-0.621-0.434-1.022-0.434-0.001 0-0.001 0-0.002 0h-27.331c-0.019-0.104-0.056-0.298-0.112-0.581s-0.093-0.505-0.112-0.67c-0.053-0.235-0.117-0.436-0.196-0.63l0.010 0.027c-0.062-0.214-0.157-0.4-0.282-0.563l0.003 0.004c-0.132-0.14-0.286-0.258-0.456-0.349l-0.010-0.005c-0.182-0.093-0.397-0.147-0.625-0.147-0.009 0-0.019 0-0.028 0l0.001-0h-5.827c-0.804 0-1.456 0.652-1.456 1.456s0.652 1.456 1.456 1.456h4.654l4.021 18.727c-0.037 0.061-0.186 0.348-0.465 0.864s-0.503 0.966-0.67 1.354c-0.135 0.261-0.227 0.566-0.26 0.889l-0.001 0.011c0.025 0.799 0.67 1.44 1.469 1.458l0.002 0h23.291c0.004 0 0.010 0 0.015 0 0.397 0 0.755-0.166 1.009-0.433l0.001-0.001c0.264-0.261 0.428-0.623 0.428-1.024s-0.164-0.763-0.428-1.024l-0-0c-0.255-0.266-0.613-0.432-1.010-0.432-0.005 0-0.010 0-0.015 0h-20.925c0.248-0.419 0.436-0.908 0.535-1.427l0.005-0.029c-0.002-0.178-0.022-0.351-0.059-0.517l0.003 0.017c-0.037-0.186-0.074-0.384-0.13-0.603s-0.093-0.372-0.112-0.49l23.756-2.774c0.374-0.041 0.7-0.222 0.929-0.488l0.002-0.002c0.231-0.255 0.372-0.595 0.372-0.968v-11.647c0-0.001 0-0.002 0-0.004 0-0.4-0.164-0.761-0.428-1.020l-0-0zM8.713 29.105c0 0.001 0 0.002 0 0.002 0 1.609 1.305 2.914 2.914 2.914s2.914-1.305 2.914-2.914c0-1.609-1.305-2.914-2.914-2.914-0.803 0-1.53 0.325-2.057 0.85l0-0c-0.529 0.518-0.857 1.239-0.857 2.037 0 0.008 0 0.017 0 0.025v-0.001z"></path>
</symbol>
<symbol id="chat-icon" viewBox="0 0 40 32">
<path d="M23.526 21.722c2.291-0.945 4.208-2.394 5.683-4.215l0.021-0.027c1.3-1.576 2.088-3.617 2.088-5.841s-0.788-4.265-2.1-5.857l0.013 0.016c-1.495-1.848-3.413-3.297-5.61-4.208l-0.094-0.034c-2.322-0.984-5.023-1.556-7.858-1.556s-5.535 0.572-7.993 1.607l0.136-0.051c-2.291 0.945-4.208 2.394-5.683 4.215l-0.021 0.027c-1.295 1.58-2.082 3.621-2.088 5.845v0.001c0.003 1.9 0.592 3.663 1.595 5.117l-0.020-0.030c1.129 1.656 2.581 3.008 4.274 3.99l0.063 0.034c-0.152 0.361-0.304 0.702-0.456 1.006-0.181 0.335-0.367 0.62-0.572 0.89l0.012-0.017c-0.218 0.275-0.38 0.493-0.503 0.655-0.185 0.249-0.375 0.469-0.579 0.674l0-0c-0.172 0.176-0.336 0.361-0.491 0.555l-0.011 0.015c0-0.019-0.038 0.019-0.095 0.095-0.023 0.046-0.055 0.084-0.094 0.113l-0.001 0.001c-0.037 0.033-0.068 0.070-0.094 0.112l-0.001 0.002c-0.047 0.085-0.076 0.133-0.076 0.133l-0.057 0.114c-0.022 0.038-0.035 0.084-0.038 0.132l-0 0.001c-0.010 0.042-0.017 0.091-0.019 0.141l-0 0.001c-0 0.001-0 0.003-0 0.005 0 0.053 0.010 0.104 0.029 0.15l-0.001-0.003c0.024 0.191 0.118 0.357 0.255 0.474l0.001 0.001c0.119 0.111 0.279 0.179 0.455 0.18h0.067c0.756-0.103 1.403-0.229 2.036-0.388l-0.129 0.027c2.357-0.622 4.419-1.624 6.229-2.949l-0.052 0.036c1.177 0.232 2.531 0.366 3.916 0.37h0.003c0.053 0 0.115 0.001 0.178 0.001 2.774 0 5.413-0.573 7.808-1.606l-0.128 0.049zM38.273 22.558c0.986-1.428 1.575-3.196 1.575-5.101 0-1.958-0.622-3.771-1.679-5.252l0.019 0.028c-1.187-1.677-2.706-3.041-4.468-4.017l-0.068-0.035c0.325 1.035 0.512 2.225 0.512 3.46 0 2.119-0.552 4.109-1.521 5.834l0.031-0.060c-1.095 1.924-2.526 3.531-4.229 4.792l-0.041 0.029c-1.679 1.243-3.631 2.243-5.736 2.896l-0.138 0.037c-2.032 0.644-4.369 1.016-6.792 1.016-0.024 0-0.048-0-0.073-0h0.004c-0.446 0-1.101-0.028-1.955-0.085 2.832 1.883 6.311 3.004 10.053 3.004 0.153 0 0.305-0.002 0.456-0.006l-0.023 0c1.386-0.005 2.737-0.136 4.048-0.382l-0.138 0.022c2.269 1.676 5.016 2.839 8 3.263l0.095 0.011c0.014 0.001 0.031 0.002 0.048 0.002 0.17 0 0.326-0.062 0.446-0.164l-0.001 0.001c0.145-0.128 0.247-0.301 0.284-0.497l0.001-0.006c-0.010-0.085 0-0.142 0.028-0.142 0.005-0.017 0.009-0.036 0.009-0.055 0-0.036-0.010-0.069-0.028-0.097l0 0.001c-0.013-0.035-0.026-0.079-0.036-0.124l-0.002-0.008-0.057-0.114c-0.025-0.048-0.051-0.088-0.078-0.127l0.002 0.003c-0.026-0.044-0.057-0.082-0.094-0.113l-0.001-0c-0.019-0.028-0.057-0.066-0.095-0.114-0.031-0.038-0.062-0.072-0.095-0.104l-0-0c-0.167-0.208-0.331-0.394-0.504-0.571l0.001 0.001c-0.204-0.205-0.394-0.425-0.567-0.658l-0.011-0.016c-0.123-0.152-0.285-0.37-0.503-0.655-0.197-0.254-0.382-0.54-0.544-0.84l-0.016-0.033c-0.152-0.304-0.304-0.636-0.456-1.006 1.753-1.015 3.205-2.364 4.308-3.97l0.029-0.044z"></path>
</symbol>
<symbol id="dribbble-icon" viewBox="0 0 32 32">
<path d="M15.44 12.68c-1.325-2.325-2.575-4.258-3.917-6.12l0.137 0.2c-2.88 1.371-4.987 3.966-5.668 7.092l-0.012 0.068c3.372-0.026 6.628-0.476 9.732-1.301l-0.271 0.061zM26 0h-20c-3.314 0-6 2.686-6 6v0 20c0 3.314 2.686 6 6 6v0h20c3.314 0 6-2.686 6-6v0-20c0-3.314-2.686-6-6-6v0zM16 27.98c-6.616 0-11.98-5.364-11.98-11.98s5.364-11.98 11.98-11.98c6.616 0 11.98 5.364 11.98 11.98v0c-0.011 6.612-5.368 11.969-11.979 11.98h-0.001zM16.72 16.1l0.4-0.12q-0.39-0.87-0.84-1.74c-3.076 0.927-6.611 1.461-10.271 1.461-0.081 0-0.161-0-0.241-0.001l0.012 0-0.020 0.32c0.011 2.635 1.011 5.035 2.648 6.849l-0.008-0.009c1.933-3.104 4.802-5.469 8.207-6.724l0.113-0.036zM18.2 13.58c0.24 0.48 0.46 0.98 0.68 1.48l0.22 0.52c0.732-0.080 1.582-0.126 2.442-0.126 1.656 0 3.272 0.17 4.832 0.493l-0.154-0.027c-0.018-2.43-0.883-4.655-2.314-6.398l0.014 0.018c-1.501 1.79-3.428 3.176-5.626 4.009l-0.094 0.031zM17.74 17.7c-3.443 1.074-6.246 3.345-7.984 6.314l-0.036 0.066c1.707 1.347 3.89 2.16 6.262 2.16 0.006 0 0.012 0 0.019-0h-0.001c0.007 0 0.016 0 0.025 0 1.435 0 2.801-0.294 4.042-0.826l-0.067 0.026c-0.555-2.965-1.31-5.568-2.284-8.061l0.104 0.301zM22.78 8.36c-1.792-1.601-4.169-2.58-6.775-2.58-0.002 0-0.003 0-0.005 0h0c-0.852 0.002-1.68 0.104-2.473 0.295l0.073-0.015c1.268 1.716 2.532 3.677 3.674 5.715l0.146 0.285c2.167-0.723 3.986-2.006 5.343-3.679l0.017-0.021zM19.72 17.2c0.773 2.037 1.465 4.486 1.953 7.007l0.047 0.293c2.286-1.574 3.893-3.994 4.371-6.799l0.009-0.061c-1.252-0.384-2.69-0.605-4.18-0.605-0.776 0-1.539 0.060-2.283 0.176l0.083-0.011z"></path>
</symbol>
<symbol id="enlarge-icon" viewBox="0 0 32 32">
<path d="M31.292 27.799l-6.608-6.584c1.491-2.094 2.384-4.705 2.384-7.524 0-0.051-0-0.102-0.001-0.153l0 0.008c0-0.013 0-0.028 0-0.043 0-1.885-0.391-3.68-1.095-5.306l0.033 0.086c-1.362-3.287-3.917-5.849-7.111-7.189l-0.087-0.032c-1.554-0.673-3.364-1.065-5.265-1.065-7.48 0-13.543 6.064-13.543 13.543 0 0.002 0 0.004 0 0.006v-0c-0 0.013-0 0.028-0 0.043 0 1.877 0.391 3.664 1.095 5.282l-0.033-0.085c2.106 4.908 6.897 8.283 12.477 8.283 0.002 0 0.005 0 0.007 0h-0c0.043 0.001 0.094 0.001 0.145 0.001 2.819 0 5.43-0.893 7.564-2.411l-0.040 0.027 6.584 6.584c0.431 0.451 1.037 0.732 1.708 0.732 0.013 0 0.027-0 0.040-0l-0.002 0c0.675-0.005 1.284-0.284 1.722-0.731l0-0c0.452-0.445 0.732-1.063 0.732-1.746 0-0.672-0.27-1.28-0.708-1.723l0 0zM19.634 19.634c-1.557 1.56-3.71 2.526-6.088 2.526s-4.531-0.965-6.088-2.525l-0-0c-1.557-1.558-2.52-3.71-2.52-6.087 0-4.756 3.855-8.611 8.611-8.611s8.611 3.855 8.611 8.61v0c0 0.028 0 0.060 0 0.093 0 2.349-0.967 4.473-2.524 5.994l-0.002 0.002z"></path>
</symbol>
<symbol id="envelope-icon" viewBox="0 0 45 32">
<path d="M2.109 0.266c0.336-0.141 0.726-0.228 1.134-0.239l0.004-0h38.725c0.413 0.012 0.803 0.099 1.16 0.247l-0.022-0.008-17.351 16.944c-0.809 0.801-1.922 1.296-3.151 1.296s-2.342-0.495-3.151-1.297l0 0zM44.771 30.404c0.303-0.511 0.482-1.125 0.484-1.782v-25.191c-0.001-0.46-0.093-0.899-0.258-1.299l0.008 0.023-16.226 15.854zM27.3 19.418c-1.235 1.122-2.883 1.809-4.691 1.809s-3.456-0.687-4.697-1.814l0.006 0.005-15.96 12.342c0.361 0.168 0.784 0.267 1.23 0.267 0.019 0 0.038-0 0.057-0.001l-0.003 0h38.725c0.015 0 0.033 0 0.051 0 0.447 0 0.871-0.098 1.252-0.274l-0.019 0.008zM0.213 2.155c-0.156 0.378-0.246 0.817-0.247 1.276v25.191c0.002 0.657 0.181 1.272 0.493 1.799l-0.009-0.017 16-12.396z"></path>
</symbol>
<symbol id="facebook-icon" viewBox="0 0 32 32">
<path d="M26 0h-20c-3.314 0-6 2.686-6 6v0 20c0 3.314 2.686 6 6 6v0h20c3.314 0 6-2.686 6-6v0-20c0-3.314-2.686-6-6-6v0zM20.14 16h-2.62v9.6h-3.6v-9.6h-2.4v-3.3l2.4-0.020-0.020-1.94c0-2.7 0.74-4.34 3.92-4.34h2.64v3.3h-1.64c-1.24 0-1.3 0.46-1.3 1.34l-0.020 1.64h2.98z"></path>
</symbol>
<symbol id="flickr-icon" viewBox="0 0 32 32">
<path d="M26 0h-20c-3.314 0-6 2.686-6 6v0 20c0 3.314 2.686 6 6 6v0h20c3.314 0 6-2.686 6-6v0-20c0-3.314-2.686-6-6-6v0zM10.12 20c-0.003 0-0.006 0-0.010 0-2.237 0-4.050-1.813-4.050-4.050s1.813-4.050 4.050-4.050c2.233 0 4.044 1.808 4.050 4.039v0.001c0 0.003 0 0.007 0 0.010 0 2.233-1.808 4.044-4.039 4.050h-0.001zM21.92 20c-2.232-0.006-4.040-1.817-4.040-4.050 0-2.237 1.813-4.050 4.050-4.050 2.233 0 4.044 1.808 4.050 4.039v0.001c0 0.008 0 0.017 0 0.026 0 2.228-1.806 4.034-4.034 4.034-0.009 0-0.018-0-0.027-0h0.001z"></path>
</symbol>
<symbol id="gear-icon" viewBox="0 0 33 32">
<path d="M28.215 12.083l-0.158-0.063-0.601-1.444 0.063-0.148c1.835-4.165 1.708-4.291 1.402-4.597l-2.436-2.393c-0.116-0.099-0.266-0.162-0.431-0.169l-0.001-0c-0.137 0-0.548 0-4.165 1.645l-0.137 0.063-1.487-0.601-0.063-0.148c-1.698-4.217-1.866-4.217-2.288-4.217h-3.458c-0.422 0-0.612 0-2.183 4.228l-0.053 0.148-1.487 0.612-0.137-0.063c-1.201-0.598-2.61-1.131-4.077-1.524l-0.161-0.037c-0.166 0.005-0.317 0.068-0.433 0.169l0.001-0.001-2.446 2.404c-0.306 0.306-0.432 0.432 1.487 4.513l0.074 0.148-0.601 1.444-0.148 0.063c-4.302 1.666-4.302 1.824-4.302 2.267v3.385c0 0.443 0 0.622 4.302 2.172l0.158 0.053 0.612 1.444-0.074 0.148c-1.824 4.165-1.708 4.281-1.402 4.587l2.446 2.393c0.108 0.108 0.257 0.176 0.421 0.179h0.001c0.137 0 0.559 0 4.165-1.645l0.148-0.063 1.487 0.601 0.053 0.148c1.698 4.217 1.877 4.217 2.299 4.217h3.448c0.432 0 0.612 0 2.193-4.228l0.053-0.158 1.487-0.601 0.137 0.063c1.201 0.598 2.61 1.131 4.077 1.524l0.161 0.037c0.166-0.007 0.316-0.069 0.433-0.17l-0.001 0.001 2.446-2.404c0.306-0.306 0.432-0.432-1.497-4.513l-0.074-0.158 0.612-1.434 0.137-0.053c4.312-1.676 4.312-1.845 4.312-2.277v-3.395c0-0.432 0-0.612-4.312-2.151zM16.258 21.509c-3.004-0.047-5.422-2.493-5.422-5.504 0-3.040 2.465-5.505 5.505-5.505s5.505 2.465 5.505 5.505c0 0 0 0 0 0v-0c-0.024 3.045-2.498 5.504-5.546 5.504-0.015 0-0.030-0-0.045-0h0.002z"></path>
</symbol>
<symbol id="google-icon" viewBox="0 0 32 32">
<path d="M26 0h-20c-3.314 0-6 2.686-6 6v0 20c0 3.314 2.686 6 6 6v0h20c3.314 0 6-2.686 6-6v0-20c0-3.314-2.686-6-6-6v0zM11.54 26.76c-3.54 0-6.54-1.44-6.54-3.74 0-2.34 2.74-4.6 6.28-4.6h1.1c-0.496-0.435-0.82-1.056-0.86-1.753l-0-0.007c0.002-0.442 0.12-0.855 0.326-1.212l-0.006 0.012-0.6 0.020c-0.074 0.004-0.161 0.007-0.248 0.007-2.547 0-4.612-2.065-4.612-4.612 0-0.012 0-0.024 0-0.037v0.002c0.356-2.657 2.609-4.685 5.335-4.685 0.079 0 0.158 0.002 0.236 0.005l-0.011-0h6.38l-1.44 1.040h-2.020c1.239 0.643 2.072 1.916 2.072 3.384 0 0.104-0.004 0.207-0.012 0.309l0.001-0.013c-0.051 1.377-0.744 2.582-1.787 3.331l-0.013 0.009c-0.706 0.322-1.194 1.011-1.22 1.817l-0 0.003c0.342 0.837 0.925 1.516 1.662 1.97l0.018 0.010c1.343 0.787 2.23 2.223 2.23 3.866 0 0.104-0.004 0.206-0.010 0.308l0.001-0.014c0 2.3-2.22 4.58-6.26 4.58zM28 14.040h-4v3.98h-2v-3.98h-4v-2.040h4v-4h2v4h4v2.040zM14.62 11c-0.121-1.973-1.567-3.575-3.453-3.936l-0.027-0.004c-1.64-0.040-2.74 1.62-2.46 3.78 0.106 1.988 1.556 3.609 3.453 3.976l0.027 0.004c1.64 0.060 2.76-1.66 2.46-3.82zM13.54 19.28c-0.471-0.163-1.014-0.258-1.579-0.26h-0.001c-2.46-0.020-4.66 1.5-4.66 3.32 0.206 1.942 1.835 3.442 3.814 3.442 0.143 0 0.284-0.008 0.423-0.023l-0.017 0.002c3.44 0 4.64-1.46 4.64-3.32 0-0.017 0.001-0.037 0.001-0.056 0-0.215-0.029-0.423-0.085-0.62l0.004 0.016c-0.527-1.116-1.414-1.989-2.508-2.487l-0.032-0.013z"></path>
</symbol>
<symbol id="heart-icon" viewBox="0 0 1024 1024">
<path d="M513.344 267.040c0 0-64-136.384-208-136.384-157.344 0-240 133.344-240 266.656 0 221.344 448 496 448 496s445.312-272 445.312-496c0-136-85.312-266.656-237.312-266.656s-208 136.384-208 136.384z"></path>
</symbol>
<symbol id="landscape-icon" viewBox="0 0 42 32">
<path d="M31.201 14.513c-1.946 0.898-3.533 3.673-5.39 1.857-1.332-1.563-2.648-3.287-3.87-5.081l-0.135-0.209c-1.665-2.336-3.793-4.332-6.278-2.036-2.785 2.575-4.699 9.542-4.865 13.135l26.317 0.020c-0.603-2.116-2.941-9.023-5.779-7.686zM31.080 4.092c1.746 0.024 3.152 1.444 3.152 3.194 0 1.764-1.43 3.194-3.194 3.194s-3.194-1.43-3.194-3.194c0-0.007 0-0.014 0-0.021v0.001c0.024-1.758 1.454-3.174 3.216-3.174 0.007 0 0.014 0 0.021 0h-0.001zM40.943 0.020h-34.242c-0.004-0-0.008-0-0.012-0-0.52 0-0.943 0.419-0.948 0.938v4.792h-4.805c-0.004-0-0.008-0-0.012-0-0.521 0-0.943 0.419-0.95 0.938v24.355c0.005 0.529 0.433 0.956 0.962 0.958h34.242c0.529-0.002 0.958-0.429 0.962-0.958v-4.771h4.803c0.004 0 0.008 0 0.012 0 0.521 0 0.943-0.419 0.95-0.938v-24.375c-0.007-0.52-0.43-0.938-0.95-0.938-0.004 0-0.008 0-0.013 0h0.001zM33.557 29.465h-31v-21.18h3.184v14.712c-0.413 1.432-0.712 3.106-0.838 4.829l-0.005 0.082 26.317 0.020c-0.116-0.419-0.295-0.998-0.529-1.657h2.871v3.194zM39.322 23.735h-31v-21.18h31.004v21.18z"></path>
</symbol>
<symbol id="lang-icon" viewBox="0 0 32 32">
<path d="M17.067 0.034v-0.034h-2.133v0.036c-7.996 0.551-14.346 6.901-14.894 14.847l-0.003 0.050h-0.036v2.133h0.036c0.552 7.995 6.902 14.344 14.847 14.892l0.050 0.003v0.038h2.133v-0.038c7.995-0.552 14.343-6.9 14.892-14.845l0.003-0.050h0.038v-2.133h-0.038c-0.55-7.996-6.899-14.347-14.845-14.896l-0.050-0.003zM10.027 3.486c-1.064 1.444-1.922 3.121-2.487 4.927l-0.032 0.12h-3.2c1.41-2.174 3.348-3.897 5.637-5.011l0.083-0.036zM3.2 10.667h3.75c-0.277 1.254-0.465 2.72-0.523 4.219l-0.001 0.048h-4.247c0.12-1.566 0.485-3.016 1.056-4.356l-0.034 0.090zM2.178 17.067h4.247c0.059 1.547 0.248 3.012 0.555 4.434l-0.030-0.167h-3.75c-0.538-1.25-0.904-2.7-1.023-4.219l-0.003-0.048zM4.311 23.467h3.2c0.593 1.927 1.449 3.604 2.544 5.095l-0.033-0.047c-2.368-1.151-4.303-2.874-5.678-4.993l-0.033-0.054zM14.933 29.728c-2.193-0.587-4.081-2.942-5.227-6.263h5.227v6.263zM14.933 21.333h-5.826c-0.293-1.256-0.491-2.721-0.551-4.221l-0.001-0.046h6.379v4.267zM14.933 14.933h-6.379c0.061-1.546 0.259-3.010 0.583-4.427l-0.031 0.16h5.826v4.267zM14.933 8.533h-5.227c1.146-3.322 3.034-5.677 5.227-6.261v6.261zM27.686 8.533h-3.2c-0.595-1.926-1.451-3.602-2.544-5.093l0.033 0.047c2.368 1.151 4.303 2.873 5.678 4.991l0.033 0.054zM17.067 2.27c2.191 0.585 4.081 2.94 5.227 6.261h-5.227v-6.261zM17.067 10.667h5.824c0.294 1.256 0.493 2.72 0.553 4.22l0.001 0.046h-6.379v-4.267zM17.067 17.067h6.379c-0.061 1.546-0.26 3.010-0.586 4.426l0.031-0.159h-5.824v-4.267zM17.067 29.728v-6.261h5.227c-1.146 3.319-3.036 5.675-5.227 6.261zM21.984 28.512c1.059-1.444 1.915-3.12 2.479-4.925l0.032-0.121h3.2c-1.408 2.172-3.343 3.893-5.628 5.007l-0.083 0.036zM28.8 21.333h-3.75c0.277-1.254 0.465-2.72 0.523-4.219l0.001-0.048h4.245c-0.119 1.566-0.482 3.016-1.054 4.356l0.034-0.090zM25.574 14.933c-0.059-1.547-0.248-3.012-0.555-4.434l0.030 0.167h3.75c0.538 1.251 0.901 2.701 1.017 4.22l0.003 0.046h-4.245z"></path>
</symbol>
<symbol id="leaf-icon" viewBox="0 0 23 32">
<path d="M19.613 0.010c-1.561 1.468-3.39 2.674-5.401 3.533l-0.121 0.046c-21.249 7.628-12.287 22.475-11.995 22.526 0.759-1.261 1.691-2.33 2.779-3.215l0.022-0.018c10.214-7.444 12.29-16.020 12.29-16.020-1.882 6.884-5.906 12.646-11.298 16.677l-0.080 0.058c-2.007 1.417-3.365 4.905-3.941 8.393 0 0 1.423-0.571 2.039-0.724 0.238-1.634 0.795-3.101 1.608-4.391l-0.027 0.046c12.699 1.499 16.859-8.648 17.402-12.186 0.127-0.883 0.2-1.902 0.2-2.939 0-4.38-1.297-8.458-3.527-11.87l0.051 0.083z"></path>
</symbol>
<symbol id="linkedin-icon" viewBox="0 0 32 32">
<path d="M26 0h-20c-3.314 0-6 2.686-6 6v0 20c0 3.314 2.686 6 6 6v0h20c3.314 0 6-2.686 6-6v0-20c0-3.314-2.686-6-6-6v0zM12 23.74h-4v-14h4v14zM10.12 8.9c-1.038 0-1.88-0.842-1.88-1.88s0.842-1.88 1.88-1.88c1.038 0 1.88 0.842 1.88 1.88v0c-0.006 1.036-0.844 1.874-1.879 1.88h-0.001zM26 23.74h-4v-8.64c0.026-0.101 0.040-0.217 0.040-0.336 0-0.781-0.633-1.414-1.414-1.414-0.059 0-0.116 0.004-0.173 0.011l0.007-0.001c-0.045-0.003-0.098-0.005-0.151-0.005-1.092 0-2.014 0.729-2.305 1.728l-0.004 0.017v8.64h-4v-14h4v1.34c1.102-0.824 2.492-1.32 3.998-1.32 0.001 0 0.002 0 0.002 0h-0c1.3 0 4 0.76 4 5.46v8.52z"></path>
</symbol>
<symbol id="link-icon" viewBox="0 0 32 32">
<path d="M29.587 14.454l-6.020 6.021c-1.54 1.542-3.669 2.495-6.020 2.495s-4.48-0.954-6.020-2.495l-0-0c-0.498-0.493-0.926-1.056-1.269-1.672l-0.019-0.038 2.788-2.788c0.13-0.112 0.276-0.213 0.432-0.298l0.013-0.007c0.215 0.705 0.578 1.311 1.055 1.805l-0.001-0.001c0.77 0.771 1.835 1.247 3.010 1.247s2.24-0.477 3.010-1.247l6.021-6.021c0.77-0.77 1.247-1.835 1.247-3.010 0-2.351-1.906-4.257-4.257-4.257-1.176 0-2.24 0.476-3.010 1.247l-2.132 2.132c-1.137-0.447-2.454-0.706-3.832-0.706-0.566 0-1.121 0.044-1.664 0.128l0.060-0.008 4.568-4.568c1.531-1.484 3.62-2.398 5.924-2.398 4.703 0 8.515 3.812 8.515 8.515 0 2.303-0.914 4.393-2.4 5.926l0.002-0.002zM13.657 24.363l-2.132 2.132c-0.77 0.77-1.835 1.247-3.010 1.247-2.351 0-4.257-1.906-4.257-4.257 0-1.176 0.476-2.24 1.247-3.010l6.020-6.021c0.77-0.771 1.835-1.247 3.010-1.247s2.24 0.477 3.010 1.247v0c0.476 0.493 0.839 1.099 1.046 1.772l0.008 0.031c0.174-0.097 0.319-0.19 0.459-0.291l-0.014 0.009 2.788-2.811c-0.363-0.654-0.791-1.217-1.288-1.71l-0.001-0.001c-1.54-1.542-3.669-2.495-6.021-2.495s-4.48 0.954-6.020 2.495l-6.021 6.021c-1.484 1.531-2.398 3.62-2.398 5.924 0 4.703 3.812 8.515 8.515 8.515 2.303 0 4.393-0.914 5.926-2.4l-0.002 0.002 4.568-4.568c-0.482 0.076-1.037 0.12-1.603 0.12-1.377 0-2.694-0.259-3.905-0.731l0.073 0.025z"></path>
</symbol>
<symbol id="login-icon" viewBox="0 0 38 32">
<path d="M35.96 2.134c-1.251-1.301-3.005-2.109-4.949-2.109-0.032 0-0.064 0-0.096 0.001l0.005-0h-7.94c-0.011-0.001-0.024-0.001-0.037-0.001-0.176 0-0.338 0.061-0.465 0.164l0.001-0.001c-0.128 0.127-0.215 0.296-0.24 0.484l-0 0.004c-0.041 0.172-0.069 0.374-0.080 0.58l-0 0.008c0 0.174 0 0.4 0.020 0.662s0.020 0.432 0.020 0.5c0.029 0.074 0.046 0.16 0.046 0.249 0 0.031-0.002 0.062-0.006 0.092l0-0.004c-0 0.004-0 0.009-0 0.014 0 0.106 0.078 0.194 0.179 0.209l0.001 0c0.085 0.016 0.156 0.067 0.199 0.137l0.001 0.001c0.064 0.048 0.144 0.077 0.231 0.077 0.017 0 0.034-0.001 0.051-0.003l-0.002 0 0.28 0.024h7.74c0.016-0 0.034-0 0.053-0 1.080 0 2.054 0.45 2.746 1.173l0.001 0.001c0.716 0.699 1.161 1.673 1.161 2.752 0 0.024-0 0.048-0.001 0.072l0-0.004v17.576c0 0.021 0.001 0.045 0.001 0.069 0 1.078-0.444 2.052-1.16 2.75l-0.001 0.001c-0.693 0.724-1.667 1.174-2.747 1.174-0.019 0-0.037-0-0.056-0l0.003 0h-7.94c-0.010-0.001-0.023-0.001-0.035-0.001-0.177 0-0.339 0.061-0.467 0.164l0.001-0.001c-0.128 0.127-0.215 0.296-0.24 0.484l-0 0.004c-0.041 0.171-0.069 0.372-0.080 0.578l-0 0.008c0 0.174 0 0.4 0.020 0.662s0.020 0.434 0.020 0.5c-0 0.002-0 0.004-0 0.007 0 0.219 0.092 0.416 0.24 0.555l0 0c0.132 0.146 0.323 0.238 0.535 0.238 0.002 0 0.004 0 0.005-0h7.94c0.027 0 0.059 0.001 0.091 0.001 1.944 0 3.699-0.809 4.947-2.108l0.002-0.002c1.297-1.262 2.101-3.024 2.101-4.974 0-0.037-0-0.074-0.001-0.111l0 0.006v-17.582c0.001-0.031 0.001-0.068 0.001-0.105 0-1.95-0.804-3.713-2.099-4.974l-0.002-0.001zM29.34 16c0-0.003 0-0.007 0-0.011 0-0.438-0.184-0.833-0.479-1.112l-0.001-0.001-13.48-13.58c-0.278-0.292-0.67-0.474-1.105-0.474-0.005 0-0.011 0-0.016 0h0.001c-0.001 0-0.001 0-0.002 0-0.439 0-0.835 0.182-1.118 0.474l-0 0c-0.284 0.287-0.46 0.682-0.46 1.118 0 0.002 0 0.004 0 0.007v-0 7.19h-11.1c-0.877 0.017-1.583 0.723-1.6 1.598l-0 0.002v9.59c0.017 0.877 0.723 1.584 1.598 1.6l0.002 0h11.1v7.19c0 0.002 0 0.004 0 0.006 0 0.436 0.176 0.831 0.46 1.118l-0-0c0.284 0.292 0.68 0.474 1.119 0.474 0 0 0.001 0 0.001 0h-0c0.004 0 0.009 0 0.014 0 0.435 0 0.827-0.182 1.105-0.473l0.001-0.001 13.48-13.58c0.296-0.28 0.48-0.675 0.48-1.113 0-0.007-0-0.015-0-0.022v0.001z"></path>
</symbol>
<symbol id="movie-icon" viewBox="0 0 922 1024">
<path d="M61.696 1024h798.464c34.348-0.989 61.815-29.070 61.815-63.566 0-0.513-0.006-1.024-0.018-1.534l0.001 0.076v-893.952c0.011-0.434 0.017-0.946 0.017-1.458 0-34.496-27.467-62.576-61.724-63.564l-0.091-0.002h-798.208c-34.37 0.962-61.866 29.053-61.866 63.567 0 0.512 0.006 1.023 0.018 1.533l-0.001-0.076v893.952c-0.011 0.436-0.017 0.949-0.017 1.464 0 34.424 27.353 62.459 61.51 63.557l0.101 0.003zM770.918 79.872c-0.002-0.109-0.003-0.237-0.003-0.365 0-10.369 8.263-18.807 18.563-19.090l0.026-0.001h57.907c10.293 0.254 18.54 8.659 18.54 18.99 0 0.164-0.002 0.327-0.006 0.49v-0.024 62.976c0.004 0.139 0.006 0.302 0.006 0.466 0 10.331-8.247 18.735-18.517 18.989h-57.931c-10.326-0.284-18.589-8.722-18.589-19.091 0-0.128 0.001-0.257 0.004-0.384v0.019-62.976zM770.918 240.128c-0.003-0.129-0.005-0.281-0.005-0.434 0-10.461 8.213-19.004 18.543-19.533l0.047-0.002h57.907c10.345 0.502 18.542 9.011 18.542 19.435 0 0.188-0.003 0.375-0.008 0.561l0.001-0.027v62.976c0.004 0.139 0.006 0.302 0.006 0.466 0 10.331-8.247 18.735-18.517 18.989h-57.931c-10.326-0.284-18.589-8.722-18.589-19.091 0-0.128 0.001-0.257 0.004-0.384v0.019-62.976zM770.918 400.384c-0.002-0.109-0.003-0.237-0.003-0.365 0-10.369 8.263-18.807 18.563-19.090l0.026-0.001h57.907c10.293 0.254 18.54 8.659 18.54 18.99 0 0.164-0.002 0.327-0.006 0.49v-0.024 62.976c0.004 0.139 0.006 0.302 0.006 0.466 0 10.331-8.247 18.735-18.517 18.989h-57.931c-10.326-0.284-18.589-8.722-18.589-19.091 0-0.128 0.001-0.257 0.004-0.384v0.019-62.976zM770.918 560.64c-0.002-0.109-0.003-0.237-0.003-0.365 0-10.369 8.263-18.807 18.563-19.090l0.026-0.001h57.907c10.293 0.254 18.54 8.659 18.54 18.99 0 0.164-0.002 0.327-0.006 0.49v-0.024 62.976c0.004 0.139 0.006 0.302 0.006 0.466 0 10.331-8.247 18.735-18.517 18.989h-57.931c-10.326-0.284-18.589-8.722-18.589-19.091 0-0.128 0.001-0.257 0.004-0.384v0.019-62.976zM770.918 720.896c-0.002-0.109-0.003-0.237-0.003-0.365 0-10.369 8.263-18.807 18.563-19.090l0.026-0.001h57.907c10.293 0.254 18.54 8.659 18.54 18.99 0 0.164-0.002 0.327-0.006 0.49v-0.024 62.976c0.004 0.139 0.006 0.302 0.006 0.466 0 10.331-8.247 18.735-18.517 18.989h-57.931c-10.326-0.284-18.589-8.722-18.589-19.091 0-0.128 0.001-0.257 0.004-0.384v0.019-62.976zM770.918 881.152c-0.002-0.109-0.003-0.237-0.003-0.365 0-10.369 8.263-18.807 18.563-19.090l0.026-0.001h57.907c10.293 0.254 18.54 8.659 18.54 18.99 0 0.164-0.002 0.327-0.006 0.49v-0.024 62.976c0.005 0.159 0.007 0.346 0.007 0.533 0 10.424-8.197 18.933-18.497 19.433l-0.045 0.002h-57.907c-10.377-0.53-18.59-9.073-18.59-19.534 0-0.152 0.002-0.305 0.005-0.456v0.023-62.976zM214.17 126.976c-0.003-0.124-0.005-0.269-0.005-0.415 0-10.359 8.269-18.786 18.566-19.040h456.114c10.298 0.283 18.539 8.699 18.539 19.040 0 0.146-0.002 0.292-0.005 0.438v-0.022 311.808c0.003 0.13 0.005 0.283 0.005 0.436 0 10.443-8.185 18.975-18.49 19.53l-0.049 0.002h-456.090c-10.372-0.502-18.592-9.034-18.592-19.486 0-0.17 0.002-0.339 0.006-0.507l-0.001 0.025v-311.808zM214.17 608.256c-0.003-0.124-0.005-0.269-0.005-0.415 0-10.359 8.269-18.786 18.566-19.040h456.114c10.298 0.283 18.539 8.699 18.539 19.040 0 0.146-0.002 0.292-0.005 0.438v-0.022 288.256c0.003 0.124 0.005 0.27 0.005 0.416 0 10.341-8.241 18.757-18.513 19.039l-0.026 0.001h-456.090c-10.321-0.255-18.59-8.682-18.59-19.041 0-0.146 0.002-0.292 0.005-0.437v0.022-288.256zM55.45 79.872c-0.004-0.139-0.006-0.302-0.006-0.466 0-10.331 8.247-18.735 18.517-18.989h57.982c10.271 0.282 18.489 8.676 18.489 18.988 0 0.164-0.002 0.328-0.006 0.492v-0.024 62.976c0.004 0.139 0.006 0.303 0.006 0.468 0 10.313-8.218 18.706-18.463 18.988l-0.026 0.001h-57.958c-10.293-0.254-18.54-8.659-18.54-18.99 0-0.164 0.002-0.327 0.006-0.49v0.024-62.976zM55.45 240.128c-0.005-0.159-0.007-0.346-0.007-0.533 0-10.424 8.197-18.933 18.497-19.433l0.045-0.002h57.958c10.322 0.529 18.491 9.026 18.491 19.432 0 0.188-0.003 0.376-0.008 0.564l0.001-0.028v62.976c0.004 0.139 0.006 0.303 0.006 0.468 0 10.313-8.218 18.706-18.463 18.988l-0.026 0.001h-57.958c-10.293-0.254-18.54-8.659-18.54-18.99 0-0.164 0.002-0.327 0.006-0.49v0.024-62.976zM55.45 400.384c-0.004-0.139-0.006-0.302-0.006-0.466 0-10.331 8.247-18.735 18.517-18.989h57.982c10.271 0.282 18.489 8.676 18.489 18.988 0 0.164-0.002 0.328-0.006 0.492v-0.024 62.976c0.004 0.139 0.006 0.303 0.006 0.468 0 10.313-8.218 18.706-18.463 18.988l-0.026 0.001h-57.958c-10.293-0.254-18.54-8.659-18.54-18.99 0-0.164 0.002-0.327 0.006-0.49v0.024-62.976zM55.45 560.64c-0.004-0.139-0.006-0.302-0.006-0.466 0-10.331 8.247-18.735 18.517-18.989h57.982c10.271 0.282 18.489 8.676 18.489 18.988 0 0.164-0.002 0.328-0.006 0.492v-0.024 62.976c0.004 0.139 0.006 0.303 0.006 0.468 0 10.313-8.218 18.706-18.463 18.988l-0.026 0.001h-57.958c-10.293-0.254-18.54-8.659-18.54-18.99 0-0.164 0.002-0.327 0.006-0.49v0.024-62.976zM55.45 720.896c-0.004-0.139-0.006-0.302-0.006-0.466 0-10.331 8.247-18.735 18.517-18.989h57.982c10.271 0.282 18.489 8.676 18.489 18.988 0 0.164-0.002 0.328-0.006 0.492v-0.024 62.976c0.004 0.139 0.006 0.303 0.006 0.468 0 10.313-8.218 18.706-18.463 18.988l-0.026 0.001h-57.958c-10.293-0.254-18.54-8.659-18.54-18.99 0-0.164 0.002-0.327 0.006-0.49v0.024-62.976zM55.45 881.152c-0.004-0.139-0.006-0.302-0.006-0.466 0-10.331 8.247-18.735 18.517-18.989h57.982c10.271 0.282 18.489 8.676 18.489 18.988 0 0.164-0.002 0.328-0.006 0.492v-0.024 62.976c0.005 0.16 0.007 0.347 0.007 0.536 0 10.406-8.169 18.903-18.444 19.43l-0.047 0.002h-57.958c-10.345-0.502-18.542-9.011-18.542-19.435 0-0.188 0.003-0.375 0.008-0.561l-0.001 0.027v-62.976z"></path>
</symbol>
<symbol id="music-icon" viewBox="0 0 512 512">
<path d="M416 448c-53.008 0-96-35.808-96-80s42.992-80 96-80c11.28 0 21.936 1.92 32 4.912v-148.912l-256 64v240h-1.936c-8.896 36.512-47.632 64-94.064 64-53.008 0-96-35.808-96-80s42.992-80 96-80c11.28 0 21.936 1.92 32 4.912v-276.912l320-80h64v368c0 44.192-42.992 80-96 80z"></path>
</symbol>
<symbol id="paper-plane-icon" viewBox="0 0 34 32">
<path d="M1.338 12.278c-0.814 0.323-1.378 1.104-1.378 2.016 0 0.713 0.345 1.345 0.877 1.739l0.006 0.004 6.962 5.096 24.724-19.568-21.866 21.666 9.52 6.968c0.389 0.287 0.879 0.46 1.408 0.46 1.029 0 1.905-0.651 2.24-1.563l0.005-0.017 10.18-28.030c0.030-0.079 0.047-0.17 0.047-0.265 0-0.215-0.087-0.409-0.229-0.549l-0-0c-0.138-0.138-0.328-0.223-0.539-0.223-0.099 0-0.193 0.019-0.28 0.053l0.005-0.002zM6.152 22.828l0.058 0.326 1.352 7.43c0.143 0.787 0.823 1.376 1.641 1.376 0.336 0 0.648-0.099 0.91-0.27l-0.006 0.004c1.645-1.002 3.039-1.971 4.373-3.012l-0.101 0.076z"></path>
</symbol>
<symbol id="phone-icon" viewBox="0 0 20 32">
<path d="M6.092 31.938c-0.411 0.024-0.893 0.038-1.377 0.038s-0.966-0.014-1.443-0.041l0.066 0.003c-1.897-0.198-3.364-1.788-3.364-3.721 0-0.197 0.015-0.39 0.044-0.578l-0.003 0.021v-23.55c0.043-2.287 1.906-4.124 4.199-4.124 0.080 0 0.159 0.002 0.238 0.007l-0.011-0h10.696s4.8-0.146 4.8 4.16v22.424c0.004 0.105 0.007 0.228 0.007 0.352 0 0.751-0.090 1.481-0.26 2.179l0.013-0.063c-0.572 1.708-2.158 2.917-4.025 2.917-0.155 0-0.308-0.008-0.459-0.025l0.019 0.002h-9.128zM9.892 30.070c0.541-0.056 0.96-0.509 0.96-1.061 0-0.589-0.477-1.066-1.066-1.066s-1.066 0.477-1.066 1.066c0 0 0 0 0 0.001v-0c0.033 0.593 0.522 1.061 1.12 1.061 0.020 0 0.040-0.001 0.060-0.002l-0.003 0zM11.892 1.988h-3.874c-0.049-0.007-0.106-0.011-0.164-0.011-0.603 0-1.104 0.432-1.212 1.003l-0.001 0.008c0.109 0.579 0.611 1.011 1.214 1.011 0.058 0 0.115-0.004 0.171-0.012l-0.006 0.001h3.874c0.049 0.007 0.106 0.011 0.164 0.011 0.603 0 1.104-0.432 1.212-1.003l0.001-0.008c-0.111-0.578-0.613-1.009-1.215-1.009-0.052 0-0.103 0.003-0.153 0.009l0.006-0.001zM16.318 5.988h-12.726c-0.019-0.001-0.041-0.002-0.064-0.002-0.702 0-1.276 0.55-1.316 1.242l-0 0.003v17.484c0.038 0.697 0.613 1.248 1.316 1.248 0.022 0 0.045-0.001 0.067-0.002l-0.003 0h12.746c0.019 0.001 0.041 0.002 0.064 0.002 0.703 0 1.278-0.551 1.316-1.244l0-0.003v-17.492c-0.038-0.697-0.613-1.248-1.316-1.248-0.022 0-0.045 0.001-0.067 0.002l0.003-0z"></path>
</symbol>
<symbol id="photo-icon" viewBox="0 0 44 32">
<path d="M27.482 11.28c-0.004 0-0.008 0-0.012 0-3.606 0-6.53 2.924-6.53 6.53s2.924 6.53 6.53 6.53c3.603 0 6.524-2.918 6.53-6.519v-0.001c0 0 0-0 0-0 0-3.604-2.916-6.527-6.517-6.54h-0.001zM38.16 3.32h-2.78l-3.54-3.32h-9.826l-2.874 3.32h-5.94c-0.115-0.967-0.875-1.726-1.832-1.839l-0.010-0.001h-4.2c-0.972 0.12-1.734 0.886-1.847 1.85l-0.001 0.010c-2.987 0.285-5.305 2.782-5.306 5.82v17c0 3.214 2.606 5.82 5.82 5.82v0h32.322c3.213-0.003 5.817-2.607 5.82-5.82v-17c-0.001-3.213-2.596-5.82-5.804-5.84h-0.002zM5.282 24.64c0 0.608-0.492 1.1-1.1 1.1s-1.1-0.492-1.1-1.1v0-11.62c0-0.607 0.493-1.1 1.1-1.1s1.1 0.492 1.1 1.1v11.62zM11.898 7.62c-0.001 0.641-0.521 1.16-1.162 1.16 0 0 0 0 0 0h-2.98c0 0 0 0 0 0-0.641 0-1.161-0.519-1.162-1.16v-0.68c0.001-0.641 0.521-1.16 1.162-1.16 0 0 0 0 0 0h2.98c0 0 0 0 0 0 0.641 0 1.161 0.519 1.162 1.16v0.68zM27.482 27.12c-0.004 0-0.008 0-0.012 0-5.142 0-9.31-4.168-9.31-9.31s4.168-9.31 9.31-9.31c5.138 0 9.304 4.163 9.31 9.299v0.001c0 0 0 0 0 0 0 5.14-4.16 9.307-9.297 9.32h-0.001z"></path>
</symbol>
<symbol id="pinterest-icon" viewBox="0 0 32 32">
<path d="M26 0h-20c-3.314 0-6 2.686-6 6v0 20c0 3.314 2.686 6 6 6v0h20c3.314 0 6-2.686 6-6v0-20c0-3.314-2.686-6-6-6v0zM17.24 20.32c-0.995-0.163-1.868-0.597-2.565-1.224l0.005 0.004c-0.52 2.64-1.12 5.18-2.96 6.5-0.56-4 0.84-7 1.48-10.18-1.1-1.86 0.14-5.58 2.46-4.66 2.84 1.12-2.48 6.88 1.1 7.6 3.72 0.76 5.26-6.48 2.94-8.84-3.34-3.38-9.74-0.060-8.96 4.8 0.2 1.18 1.42 1.54 0.5 3.18-2.14-0.46-2.78-2.16-2.7-4.42 0.275-3.499 3.015-6.28 6.47-6.618l0.030-0.002c4.040-0.44 7.82 1.48 8.34 5.28 0.58 4.28-1.82 8.92-6.14 8.58z"></path>
</symbol>
<symbol id="rss-icon" viewBox="0 0 32 32">
<path d="M26 0h-20c-3.314 0-6 2.686-6 6v0 20c0 3.314 2.686 6 6 6v0h20c3.314 0 6-2.686 6-6v0-20c0-3.314-2.686-6-6-6v0zM8.62 25.96c-1.427-0.011-2.58-1.171-2.58-2.6 0-1.436 1.164-2.6 2.6-2.6s2.6 1.164 2.6 2.6v0c0 0 0 0 0 0 0 1.436-1.164 2.6-2.6 2.6-0.007 0-0.014-0-0.021-0h0.001zM15.18 25.98c0-0.009 0-0.019 0-0.030 0-5.053-4.097-9.15-9.15-9.15-0.004 0-0.007 0-0.011 0h0.001v-3.76c7.137 0.007 12.92 5.794 12.92 12.932 0 0.003 0 0.006 0 0.008v-0h-3.76zM21.84 25.98c-0.001-8.734-7.069-15.816-15.798-15.84h-0.002v-3.74c10.801 0.023 19.549 8.778 19.56 19.579v0.001h-3.76z"></path>
</symbol>
<symbol id="search-icon" viewBox="0 0 32 32">
<path d="M31.28 27.799l-6.588-6.592c1.498-2.107 2.394-4.733 2.394-7.568 0-0.035-0-0.070-0-0.105l0 0.005c-0.001-1.898-0.393-3.705-1.1-5.344l0.034 0.088c-1.374-3.281-3.933-5.838-7.13-7.174l-0.087-0.032c-1.552-0.674-3.36-1.067-5.26-1.067s-3.708 0.392-5.347 1.101l0.088-0.034c-1.677 0.712-3.109 1.684-4.317 2.883l0.001-0.001c-1.196 1.211-2.168 2.646-2.849 4.236l-0.034 0.089c-0.674 1.551-1.066 3.359-1.066 5.257s0.392 3.706 1.1 5.345l-0.034-0.088c1.374 3.276 3.926 5.83 7.112 7.174l0.087 0.033c1.541 0.675 3.338 1.068 5.226 1.068 0.012 0 0.024-0 0.036-0h-0.002c0.037 0 0.081 0.001 0.125 0.001 2.827 0 5.445-0.893 7.587-2.412l-0.041 0.027 6.588 6.572c0.424 0.451 1.024 0.733 1.69 0.733 0.014 0 0.028-0 0.042-0l-0.002 0c1.351-0.022 2.441-1.111 2.464-2.46l0-0.002c0-0.018 0.001-0.039 0.001-0.060 0-0.657-0.275-1.251-0.716-1.671l-0.001-0.001zM19.624 19.623c-1.547 1.534-3.677 2.482-6.029 2.482-4.729 0-8.563-3.834-8.563-8.563s3.834-8.563 8.563-8.563c4.728 0 8.561 3.832 8.563 8.56v0c0.001 0.037 0.001 0.082 0.001 0.126 0 2.339-0.971 4.451-2.532 5.955l-0.003 0.002z"></path>
</symbol>
<symbol id="smartphone-icon" viewBox="0 0 21 32">
<path d="M18.169-0.010h-15.447c-0.024-0.001-0.052-0.001-0.080-0.001-1.434 0-2.602 1.138-2.652 2.559l-0 0.005v26.874c0.050 1.426 1.218 2.564 2.652 2.564 0.028 0 0.056-0 0.084-0.001l-0.004 0h15.447c0.024 0.001 0.051 0.001 0.079 0.001 1.432 0 2.599-1.139 2.643-2.56l0-0.004v-26.874c-0.045-1.425-1.211-2.564-2.643-2.564-0.028 0-0.055 0-0.083 0.001l0.004-0zM7.948 2.333c0.010-0.355 0.3-0.638 0.656-0.638 0.004 0 0.009 0 0.013 0h3.659c0.004-0 0.008-0 0.012-0 0.356 0 0.646 0.284 0.656 0.637l0 0.001v0.020c-0.011 0.349-0.297 0.629-0.648 0.629-0.007 0-0.014-0-0.021-0l0.001 0h-3.66c-0.006 0-0.013 0-0.020 0-0.351 0-0.637-0.279-0.648-0.628l-0-0.001v-0.020zM10.441 31.023c-0.729-0.047-1.302-0.65-1.302-1.386 0-0.767 0.622-1.389 1.389-1.389s1.389 0.622 1.389 1.389c0 0 0 0 0 0v0c-0.027 0.772-0.659 1.387-1.435 1.387-0.014 0-0.029-0-0.043-0.001l0.002 0zM18.628 26.864c-0.009 0.239-0.205 0.429-0.445 0.429-0.005 0-0.009-0-0.014-0l0.001 0h-15.447c-0.004 0-0.009 0-0.013 0-0.24 0-0.436-0.19-0.445-0.428l-0-0.001v-21.749c0.009-0.239 0.205-0.429 0.445-0.429 0.005 0 0.009 0 0.014 0l-0.001-0h15.447c0.004-0 0.009-0 0.013-0 0.24 0 0.436 0.19 0.445 0.428l0 0.001v21.749zM16.354 14.070h-11.817c-0.005-0-0.010-0-0.016-0-0.236 0-0.43 0.185-0.443 0.418l-0 0.001v0.010c0.009 0.239 0.205 0.429 0.445 0.429 0.005 0 0.009-0 0.014-0l-0.001 0h11.817c0.004 0 0.008 0 0.012 0 0.238 0 0.432-0.191 0.437-0.429v-0.010c-0.009-0.233-0.2-0.419-0.434-0.419-0.005 0-0.010 0-0.015 0l0.001-0zM16.354 7.25h-1.366c-0.004-0-0.009-0-0.014-0-0.235 0-0.426 0.186-0.434 0.418l-0 0.001v1.286c0.009 0.233 0.2 0.419 0.434 0.419 0.005 0 0.010-0 0.015-0l-0.001 0h1.366c0.004 0 0.009 0 0.014 0 0.235 0 0.426-0.186 0.434-0.418l0-0.001v-1.286c-0.009-0.233-0.2-0.419-0.434-0.419-0.005 0-0.010 0-0.015 0l0.001-0zM11.358 9.374h1.356c0.005 0 0.010 0 0.016 0 0.236 0 0.43-0.185 0.443-0.418l0-0.001v-1.286c-0.013-0.234-0.207-0.419-0.443-0.419-0.005 0-0.011 0-0.016 0l0.001-0h-1.356c-0.006-0-0.014-0.001-0.021-0.001-0.235 0-0.427 0.186-0.437 0.418l-0 0.001v1.286c0.010 0.234 0.202 0.419 0.437 0.419 0.008 0 0.015-0 0.022-0.001l-0.001 0zM16.354 16.633h-11.817c-0.005-0-0.010-0-0.016-0-0.236 0-0.43 0.185-0.443 0.418l-0 0.001v0.010c0.013 0.234 0.207 0.419 0.443 0.419 0.005 0 0.011-0 0.016-0l-0.001 0h11.817c0.004 0 0.009 0 0.014 0 0.235 0 0.426-0.186 0.434-0.418l0-0.001v-0.010c-0.009-0.233-0.2-0.419-0.434-0.419-0.005 0-0.010 0-0.015 0l0.001-0zM4.537 12.365h7.728c0.004 0 0.009 0 0.014 0 0.235 0 0.426-0.186 0.434-0.418l0-0.001v-0.010c-0.004-0.238-0.198-0.429-0.437-0.429-0.004 0-0.008 0-0.013 0h-7.728c-0.004-0-0.009-0-0.013-0-0.24 0-0.436 0.19-0.445 0.428l-0 0.001v0.010c0.013 0.234 0.207 0.419 0.443 0.419 0.005 0 0.011-0 0.016-0l-0.001 0zM16.354 19.186h-11.817c-0.004-0-0.009-0-0.013-0-0.24 0-0.436 0.19-0.445 0.428l-0 0.001c0.009 0.239 0.205 0.429 0.445 0.429 0.005 0 0.009-0 0.014-0l-0.001 0h11.817c0.004 0 0.008 0 0.012 0 0.238 0 0.432-0.191 0.437-0.429v-0c-0.004-0.238-0.198-0.429-0.437-0.429-0.004 0-0.008 0-0.013 0h0.001zM4.537 9.374h1.366c0.004 0 0.009 0 0.014 0 0.235 0 0.426-0.186 0.434-0.418l0-0.001v-1.286c-0.009-0.233-0.2-0.419-0.434-0.419-0.005 0-0.010 0-0.015 0l0.001-0h-1.366c-0.005-0-0.010-0-0.016-0-0.236 0-0.43 0.185-0.443 0.418l-0 0.001v1.286c0.013 0.234 0.207 0.419 0.443 0.419 0.005 0 0.011-0 0.016-0l-0.001 0zM8.177 9.374h1.356c0.005 0 0.010 0 0.016 0 0.236 0 0.43-0.185 0.443-0.418l0-0.001v-1.286c-0.013-0.234-0.207-0.419-0.443-0.419-0.005 0-0.011 0-0.016 0l0.001-0h-1.356c-0.006-0-0.014-0.001-0.021-0.001-0.235 0-0.427 0.186-0.437 0.418l-0 0.001v1.286c0.010 0.234 0.202 0.419 0.437 0.419 0.008 0 0.015-0 0.022-0.001l-0.001 0zM16.354 24.312h-11.817c-0.005-0-0.010-0-0.016-0-0.236 0-0.43 0.185-0.443 0.418l-0 0.001v0.010c0.013 0.234 0.207 0.419 0.443 0.419 0.005 0 0.011-0 0.016-0l-0.001 0h11.817c0.004 0 0.009 0 0.014 0 0.235 0 0.426-0.186 0.434-0.418l0-0.001v-0.010c-0.009-0.233-0.2-0.419-0.434-0.419-0.005 0-0.010 0-0.015 0l0.001-0zM16.354 21.749h-11.817c-0.005-0-0.010-0-0.016-0-0.236 0-0.43 0.185-0.443 0.418l-0 0.001v0.010c0.009 0.239 0.205 0.429 0.445 0.429 0.005 0 0.009-0 0.014-0l-0.001 0h11.817c0.004 0 0.008 0 0.012 0 0.238 0 0.432-0.191 0.437-0.429v-0.010c-0.009-0.233-0.2-0.419-0.434-0.419-0.005 0-0.010 0-0.015 0l0.001-0z"></path>
</symbol>
<symbol id="star-icon" viewBox="0 0 34 32">
<path d="M31.087 11.349c-0.52-1.603 0.189-3.84-0.783-5.17-0.982-1.351-3.346-1.361-4.695-2.348-1.336-0.968-2.075-3.205-3.681-3.729-1.547-0.504-3.46 0.867-5.176 0.867s-3.628-1.371-5.177-0.867c-1.606 0.524-2.344 2.762-3.681 3.729-1.35 0.988-3.712 0.998-4.694 2.348-0.972 1.33-0.263 3.568-0.783 5.17-0.504 1.542-2.419 2.933-2.419 4.646s1.915 3.104 2.419 4.646c0.519 1.603-0.191 3.84 0.783 5.18s3.345 1.361 4.694 2.338 2.075 3.215 3.681 3.729c1.548 0.504 3.46-0.867 5.176-0.867s3.628 1.371 5.177 0.867c1.606-0.514 2.344-2.762 3.68-3.729s3.713-0.998 4.696-2.338 0.262-3.578 0.782-5.18c0.504-1.542 2.419-2.933 2.419-4.646s-1.914-3.104-2.418-4.646zM16.752 27.717c-6.46-0.018-11.689-5.259-11.689-11.722 0-6.474 5.248-11.722 11.722-11.722s11.722 5.248 11.722 11.722v0c-0.014 6.477-5.267 11.722-11.746 11.722-0.004 0-0.007 0-0.011 0h0.001zM16.752 6.188c-5.404 0.016-9.778 4.4-9.778 9.807 0 5.416 4.391 9.807 9.807 9.807s9.807-4.391 9.807-9.807v0c-0.013-5.419-4.408-9.807-9.829-9.807-0.003 0-0.006 0-0.009 0h0zM23.303 14.846l-3.182 2.631 1.021 4.001c0.012 0.044 0.018 0.095 0.018 0.147 0 0.327-0.265 0.592-0.592 0.592-0.118 0-0.229-0.035-0.321-0.095l0.002 0.001-3.496-2.207-3.496 2.207c-0.090 0.058-0.2 0.093-0.319 0.093-0.327 0-0.592-0.265-0.592-0.592 0-0.052 0.007-0.103 0.019-0.151l-0.001 0.004 1.021-4.001-3.182-2.631c-0.133-0.109-0.217-0.274-0.217-0.457 0-0.315 0.246-0.572 0.557-0.591l0.002-0 4.126-0.262 1.531-3.84c0.090-0.22 0.303-0.372 0.551-0.372s0.461 0.152 0.549 0.368l0.001 0.004 1.53 3.84 4.127 0.262c0.31 0.021 0.553 0.277 0.553 0.59 0 0.184-0.084 0.348-0.216 0.457l-0.001 0.001z"></path>
</symbol>
<symbol id="tumblr-icon" viewBox="0 0 32 32">
<path d="M26 0h-20c-3.314 0-6 2.686-6 6v0 20c0 3.314 2.686 6 6 6v0h20c3.314 0 6-2.686 6-6v0-20c0-3.314-2.686-6-6-6v0zM22 14.8h-4.8v4.38c-0.015 0.191-0.024 0.414-0.024 0.639 0 0.509 0.045 1.008 0.132 1.492l-0.008-0.051c0.154 0.351 0.411 0.633 0.731 0.816l0.009 0.004c0.392 0.239 0.867 0.381 1.375 0.381 0.023 0 0.046-0 0.069-0.001l-0.003 0c0.065 0.004 0.141 0.006 0.218 0.006 0.868 0 1.669-0.288 2.312-0.773l-0.010 0.007v2.9c-0.625 0.298-1.358 0.559-2.121 0.744l-0.079 0.016c-0.626 0.153-1.345 0.24-2.084 0.24-0.027 0-0.053-0-0.080-0l0.004 0c-0.032 0.001-0.069 0.001-0.106 0.001-0.701 0-1.373-0.125-1.994-0.354l0.040 0.013c-0.669-0.213-1.248-0.534-1.749-0.947l0.009 0.007c-0.426-0.347-0.761-0.79-0.972-1.298l-0.008-0.022c-0.182-0.511-0.288-1.1-0.288-1.713 0-0.101 0.003-0.201 0.008-0.3l-0.001 0.014v-6.74h-2.58v-2.72c0.818-0.228 1.531-0.585 2.157-1.052l-0.017 0.012c0.527-0.461 0.963-1.011 1.285-1.629l0.015-0.031c0.337-0.712 0.571-1.538 0.657-2.409l0.003-0.031h3.1v4.8h4.8v3.6z"></path>
</symbol>
<symbol id="twitter-icon" viewBox="0 0 32 32">
<path d="M26 0h-20c-3.314 0-6 2.686-6 6v0 20c0 3.314 2.686 6 6 6v0h20c3.314 0 6-2.686 6-6v0-20c0-3.314-2.686-6-6-6v0zM23.96 12.4l0.020 0.52c-0.015 6.189-5.035 11.2-11.226 11.2-2.24 0-4.326-0.656-6.078-1.786l0.044 0.027c0.32 0.020 0.62 0.060 0.94 0.060 0 0 0 0 0.001 0 1.858 0 3.566-0.64 4.916-1.712l-0.016 0.012c-1.72-0.025-3.17-1.156-3.672-2.712l-0.008-0.028c0.207 0.051 0.445 0.080 0.69 0.080 0.018 0 0.035-0 0.053-0l-0.003 0c0.012 0 0.027 0 0.041 0 0.356 0 0.699-0.051 1.024-0.147l-0.026 0.006c-1.813-0.378-3.157-1.962-3.16-3.86v-0.060c0.512 0.294 1.123 0.477 1.773 0.5l0.007 0c-1.067-0.713-1.76-1.912-1.76-3.273 0-0.732 0.201-1.418 0.55-2.005l-0.010 0.018c1.95 2.39 4.837 3.952 8.093 4.119l0.027 0.001c-0.061-0.269-0.097-0.58-0.1-0.898v-0.002c0.005-2.177 1.771-3.939 3.948-3.939 1.131 0 2.151 0.475 2.87 1.237l0.002 0.002c0.942-0.19 1.78-0.516 2.539-0.961l-0.039 0.021c-0.311 0.928-0.925 1.684-1.722 2.17l-0.018 0.010c0.84-0.11 1.603-0.328 2.314-0.641l-0.054 0.021c-0.531 0.798-1.182 1.469-1.937 2.004l-0.023 0.016z"></path>
</symbol>
<symbol id="twitter-round-icon" viewBox="0 0 32 32">
<path d="M15.975-0.017c-0.009-0-0.021-0-0.032-0-8.846 0-16.017 7.171-16.017 16.017s7.171 16.017 16.017 16.017c8.846 0 16.017-7.171 16.017-16.017 0-0.003 0-0.006 0-0.009v0c0-0.002 0-0.003 0-0.005 0-8.832-7.154-15.993-15.984-16.003h-0.001zM22.476 13.099c0 0.135 0 0.269 0 0.42 0 0.004 0 0.009 0 0.013 0 4.945-4.009 8.954-8.954 8.954-1.796 0-3.468-0.529-4.869-1.438l0.035 0.021c0.224 0.032 0.482 0.050 0.745 0.050 0.002 0 0.004 0 0.005 0h-0c0.004 0 0.009 0 0.014 0 1.479 0 2.838-0.513 3.909-1.372l-0.012 0.010c-1.375-0.019-2.534-0.921-2.937-2.164l-0.006-0.022c0.177 0.032 0.38 0.050 0.588 0.050 0.002 0 0.004 0 0.006 0h-0c0.003 0 0.007 0 0.011 0 0.29 0 0.572-0.037 0.841-0.106l-0.023 0.005c-1.449-0.303-2.522-1.57-2.522-3.088 0-0.002 0-0.004 0-0.007v0-0.034c0.412 0.23 0.901 0.372 1.422 0.387l0.004 0c-0.849-0.575-1.4-1.535-1.401-2.623v-0c0-0.003-0-0.007-0-0.011 0-0.579 0.159-1.12 0.435-1.584l-0.008 0.014c1.561 1.907 3.867 3.155 6.466 3.295l0.023 0.001c-0.052-0.213-0.082-0.459-0.082-0.711 0-0.004 0-0.009 0-0.013v0.001c0-0.002 0-0.005 0-0.008 0-1.74 1.409-3.15 3.148-3.153h0c0 0 0.001 0 0.002 0 0.908 0 1.725 0.388 2.295 1.007l0.002 0.002c0.755-0.155 1.424-0.423 2.028-0.789l-0.028 0.016c-0.242 0.745-0.732 1.353-1.37 1.741l-0.014 0.008c0.672-0.088 1.282-0.265 1.849-0.521l-0.041 0.017c-0.423 0.642-0.941 1.184-1.541 1.619l-0.018 0.012z"></path>
</symbol>
<symbol id="vimeo-icon" viewBox="0 0 32 32">
<path d="M26 0h-20c-3.314 0-6 2.686-6 6v0 20c0 3.314 2.686 6 6 6v0h20c3.314 0 6-2.686 6-6v0-20c0-3.314-2.686-6-6-6v0zM25.5 11.64c-1.080 6.040-7.060 11.16-8.86 12.34-0.375 0.189-0.818 0.299-1.287 0.299-1.29 0-2.384-0.838-2.767-1.999l-0.006-0.021c-0.68-1.4-2.72-9.060-3.26-9.7s-2.14 0.64-2.14 0.64l-0.78-1.020s3.26-3.9 5.76-4.38c2.62-0.52 2.62 4.040 3.26 6.58 0.6 2.44 1.020 3.84 1.56 3.84 1.221-0.841 2.152-2.024 2.664-3.411l0.016-0.049c1.12-2.1-0.060-3.94-2.24-2.64 0.88-5.26 9.16-6.52 8.080-0.48z"></path>
</symbol>
</defs>
</svg>
